<svg width="37" height="36" viewBox="0 0 37 36" fill="none" xmlns="http://www.w3.org/2000/svg">
<path d="M7.86356 0.123086C4.23843 0.763238 1.32175 3.41316 0.402278 6.89676C0.0706655 8.15474 0.0480556 8.89165 0.0857388 18.6502C0.108349 27.6123 0.115885 27.8207 0.266618 28.513C1.10319 32.2422 3.78623 34.8996 7.59977 35.7779C8.09719 35.8896 8.73027 35.9119 12.8076 35.9343C17.0281 35.964 17.4652 35.9566 17.5783 35.8449C17.6913 35.7333 17.6989 34.2967 17.6989 18.0101C17.6989 5.93654 17.6763 0.249627 17.6235 0.145419C17.5481 0.0114344 17.42 0.00398811 13.0035 0.0114344C9.41611 0.0188776 8.33836 0.0412074 7.86356 0.123086ZM14.6842 17.9877V33.0685L11.6168 33.0312C8.79056 33.0015 8.4891 32.9866 7.92385 32.8452C5.49705 32.2273 3.69579 30.3813 3.19084 27.977C3.02503 27.2252 3.02503 8.70556 3.1833 7.96865C3.6355 5.87699 5.10514 4.14263 7.08728 3.36105C8.08212 2.96654 8.54185 2.92188 11.7675 2.91444L14.6842 2.90699V17.9877Z" fill="#F31111"/>
<path d="M8.51443 7.45226C8.03963 7.54159 7.31611 7.89888 6.93174 8.23384C6.14039 8.91121 5.74849 9.87143 5.80878 11.0029C5.83893 11.5909 5.87661 11.7472 6.11778 12.2236C6.472 12.9456 7.00711 13.4741 7.73816 13.8314C8.24311 14.0771 8.37124 14.1068 9.02693 14.1292C9.62232 14.1515 9.83335 14.1292 10.2328 13.9952C11.8682 13.4518 12.8555 11.8812 12.5767 10.2734C12.2526 8.36038 10.4137 7.08008 8.51443 7.45226Z" fill="#F31111"/>
<path d="M21.3692 0.0502894C21.339 0.0726221 21.3164 8.14148 21.3164 17.9819C21.3164 34.2164 21.3239 35.8614 21.437 35.9061C21.6405 35.9805 27.4889 35.9508 28.2124 35.8763C31.2723 35.5339 33.9704 33.6954 35.4401 30.9636C35.6285 30.6137 35.8772 30.0257 36.0053 29.6609C36.4801 28.2615 36.4651 28.6337 36.4651 17.9373C36.4651 9.39945 36.45 8.12659 36.3445 7.58321C35.5983 3.7051 32.6063 0.779763 28.6722 0.109838C28.1446 0.0205164 27.3306 -0.00181633 24.7079 -0.00181633C22.8991 -0.00181633 21.3918 0.0205164 21.3692 0.0502894ZM29.4183 16.2624C30.594 16.5676 31.5587 17.4534 31.9506 18.5848C32.1993 19.2845 32.1918 20.3118 31.9431 20.9519C31.4833 22.128 30.5789 22.9542 29.4183 23.2594C27.5341 23.7433 25.5294 22.6193 24.9792 20.7733C24.8134 20.2076 24.8209 19.2548 25.0094 18.6742C25.5746 16.8505 27.5341 15.7786 29.4183 16.2624Z" fill="#F31111"/>
</svg>
