<svg width="50" height="38" viewBox="0 0 50 38" fill="none" xmlns="http://www.w3.org/2000/svg">
<path d="M48.7797 29.1435C47.8212 30.3484 45.4731 31.208 45.4731 31.208L28.0057 37.4612V32.8499L40.8606 28.2849C42.3193 27.764 42.5434 27.0274 41.3576 26.6411C40.174 26.2532 38.031 26.3644 36.5711 26.8875L28.0057 29.8939V25.1081L28.4994 24.9417C28.4994 24.9417 30.9744 24.0686 34.4549 23.6842C37.9352 23.3021 42.1969 23.7365 45.5421 25.0006C49.3123 26.1878 49.737 27.9383 48.7797 29.1435ZM29.6684 21.2908V9.49754C29.6684 8.11257 29.4121 6.83749 28.1083 6.47654C27.1098 6.15779 26.49 7.08191 26.49 8.46583V37.9991L18.4986 35.4709V0.257812C21.8964 0.886378 26.8465 2.37249 29.508 3.26658C36.2759 5.58231 38.5705 8.4645 38.5705 14.9587C38.5704 21.2885 34.6499 23.6875 29.6684 21.2908ZM3.83504 32.3676C-0.035316 31.2812 -0.679382 29.0178 1.08467 27.7138C2.71505 26.5099 5.48778 25.6035 5.48778 25.6035L16.9462 21.543V26.1723L8.70061 29.1133C7.24398 29.6342 7.01997 30.3719 8.20359 30.7584C9.38813 31.1446 11.5323 31.0348 12.9911 30.5128L16.9461 29.0821V33.2242C16.6954 33.2685 16.4157 33.3129 16.1572 33.3563C12.201 34.0003 7.98743 33.7317 3.83504 32.3676Z" fill="#317AD0"/>
</svg>
