<svg width="37" height="37" viewBox="0 0 37 37" fill="none" xmlns="http://www.w3.org/2000/svg">
<path d="M18.4882 0.261719C8.91248 0.261719 1.06771 7.69362 0.322266 17.1382L10.0921 21.2037C10.9457 20.6154 11.9587 20.3005 12.9962 20.301C13.0918 20.301 13.1882 20.301 13.2838 20.3089L17.6292 13.9704C17.6292 13.9403 17.6292 13.9109 17.6292 13.8808C17.6292 10.0655 20.7123 6.96083 24.5035 6.96083C28.2947 6.96083 31.3764 10.0655 31.3764 13.8808C31.3764 17.696 28.2926 20.8007 24.5021 20.8007C24.4496 20.8007 24.3979 20.8007 24.3461 20.8007L18.1496 25.2484C18.1496 25.3301 18.1547 25.4126 18.1547 25.4943C18.1547 28.3588 15.8407 30.6884 12.9955 30.6884C10.4983 30.6884 8.41 28.8959 7.93628 26.5175L0.949818 23.61C3.11354 31.3115 10.1431 36.9573 18.4897 36.9573C28.5535 36.9573 36.7174 28.7424 36.7174 18.6102C36.7174 8.47804 28.5557 0.261719 18.4882 0.261719Z" fill="#231F20"/>
<path d="M11.7412 28.1004L9.50195 27.1683C9.81959 27.8462 10.3288 28.4169 10.967 28.8102C11.6052 29.2036 12.3447 29.4025 13.0946 29.3825C13.8446 29.3626 14.5724 29.1246 15.1887 28.6979C15.805 28.2712 16.2829 27.6743 16.5639 26.9804C16.9618 26.0261 16.9639 24.9534 16.5696 23.9976C16.3786 23.5248 16.0954 23.0945 15.7364 22.7317C15.3775 22.3689 14.9499 22.0807 14.4785 21.8838C13.5686 21.5024 12.546 21.4867 11.6247 21.8401L13.938 22.803C14.6379 23.1004 15.1919 23.6614 15.4795 24.3641C15.767 25.0667 15.7648 25.8542 15.4734 26.5552C15.3317 26.9019 15.1225 27.2172 14.8579 27.4829C14.5933 27.7485 14.2786 27.9593 13.932 28.103C13.5853 28.2466 13.2135 28.3204 12.8381 28.3199C12.4627 28.3195 12.0911 28.2449 11.7448 28.1004" fill="#231F20"/>
<path d="M21.0672 13.8728C21.0732 13.1951 21.2801 12.5343 21.6619 11.9737C22.0438 11.4131 22.5834 10.9777 23.2129 10.7225C23.8423 10.4673 24.5334 10.4036 25.1991 10.5396C25.8648 10.6755 26.4752 11.0049 26.9535 11.4862C27.4318 11.9676 27.7566 12.5794 27.8869 13.2446C28.0172 13.9098 27.9472 14.5985 27.6857 15.2241C27.4242 15.8496 26.9829 16.384 26.4175 16.7598C25.8521 17.1356 25.1878 17.3361 24.5083 17.336C24.0544 17.334 23.6053 17.2429 23.1867 17.0678C22.768 16.8926 22.3881 16.637 22.0686 16.3154C21.749 15.9938 21.4961 15.6125 21.3243 15.1934C21.1525 14.7743 21.0651 14.3256 21.0672 13.8728ZM29.0816 13.8807C29.0816 11.3381 27.0264 9.26953 24.5011 9.26953C21.9758 9.26953 19.9199 11.3381 19.9199 13.8807C19.9199 16.4232 21.9751 18.4904 24.5011 18.4904C27.0272 18.4904 29.0816 16.4225 29.0816 13.8807Z" fill="#231F20"/>
</svg>
