<svg width="37" height="37" viewBox="0 0 37 37" fill="none" xmlns="http://www.w3.org/2000/svg">
<path d="M18.6532 6.654C21.4877 4.70793 24.4199 3.50533 26.1006 3.29785C27.1497 3.1878 28.21 3.27643 29.2264 3.55912C26.1022 1.36593 22.3698 0.211658 18.5559 0.259226C14.7421 0.306794 11.0395 1.5538 7.9707 3.82423C8.08378 3.7493 11.1214 1.83205 18.6532 6.654Z" fill="#0F7C10"/>
<path d="M36.9747 18.5083C36.9774 15.9391 36.4375 13.3985 35.3904 11.0536C34.3433 8.70861 32.8127 6.61247 30.8994 4.90306C29.1018 4.87808 28.5326 5.51205 27.6127 6.14793C27.0243 6.55136 24.9545 8.48206 22.8809 10.3935C24.2013 11.8958 25.4413 13.5634 26.9515 15.3365C29.5464 18.3795 33.6592 25.5644 32.8217 30.1117C35.5122 26.8469 36.9811 22.7429 36.9747 18.5083Z" fill="#0F7C10"/>
<path d="M13.7861 10.9691C14.0237 10.6752 14.2729 10.3928 14.5297 10.1046C12.1724 7.92992 10.1218 5.99538 9.54683 5.74948C8.76107 5.40945 7.68976 4.73898 7.0554 4.54688C3.43938 7.59684 1.14888 11.9373 0.668521 16.65C0.188158 21.3626 1.55561 26.0777 4.48157 29.7978C3.67473 23.4389 10.484 15.0764 13.7861 10.971" fill="#0F7C10"/>
<path d="M18.9069 14.0064L18.8053 13.9219C18.7076 13.9968 18.6137 14.0717 18.5332 14.137C16.4883 15.7239 7.32179 25.2429 6.07607 27.8882C5.41872 29.2733 5.34206 30.2589 5.41872 30.8871C7.1425 32.7539 9.23657 34.239 11.5666 35.2469C13.8966 36.2548 16.411 36.7633 18.9486 36.7397C21.4862 36.7162 23.9909 36.1612 26.3019 35.1103C28.6129 34.0594 30.6792 32.5358 32.3683 30.6373C32.3913 30.3895 32.466 28.332 29.1352 24.3842C25.5744 20.1578 22.5118 17.0321 18.9146 14.0102" fill="#0F7C10"/>
</svg>
