<svg width="34" height="40" viewBox="0 0 34 40" fill="none" xmlns="http://www.w3.org/2000/svg">
<path d="M3.20022 13.1328C2.52356 13.1328 1.94944 13.3688 1.47751 13.8407C1.00557 14.3126 0.769531 14.8789 0.769531 15.5399V25.6881C0.769531 26.3656 1.0055 26.9392 1.47751 27.4112C1.94944 27.8831 2.52356 28.1192 3.20022 28.1192C3.87638 28.1192 4.44702 27.8832 4.91164 27.4112C5.37534 26.9393 5.60783 26.3656 5.60783 25.6881V15.5399C5.60783 14.8789 5.37186 14.3126 4.89985 13.8407C4.42785 13.3688 3.86118 13.1328 3.20022 13.1328Z" fill="#3DDB85"/>
<path d="M22.7449 4.02469L24.4206 0.933485C24.5306 0.728834 24.4915 0.571902 24.3029 0.461552C24.0981 0.366399 23.9409 0.414615 23.8309 0.602791L22.1318 3.71871C20.6367 3.05768 19.0554 2.72656 17.3879 2.72656C15.72 2.72656 14.1386 3.05775 12.644 3.71871L10.9448 0.602791C10.8344 0.414615 10.6771 0.366825 10.4729 0.461552C10.2839 0.572399 10.2448 0.728834 10.3552 0.933485L12.0309 4.02469C10.3317 4.89122 8.97844 6.09804 7.97152 7.64776C6.96461 9.19833 6.46094 10.8928 6.46094 12.7341H28.2911C28.2911 10.8932 27.7874 9.19869 26.7805 7.64776C25.7735 6.09804 24.4281 4.89122 22.7449 4.02469ZM13.0569 8.5209C12.8757 8.70254 12.6592 8.79294 12.4076 8.79294C12.1555 8.79294 11.9435 8.70254 11.7705 8.5209C11.5976 8.34011 11.5111 8.12452 11.5111 7.87208C11.5111 7.62049 11.5976 7.40448 11.7705 7.22326C11.9435 7.04247 12.156 6.95208 12.4076 6.95208C12.6592 6.95208 12.8757 7.04247 13.0569 7.22326C13.2377 7.40491 13.3285 7.62049 13.3285 7.87208C13.328 8.12409 13.2372 8.34011 13.0569 8.5209ZM23.0043 8.5209C22.831 8.70254 22.6184 8.79294 22.3673 8.79294C22.1151 8.79294 21.8988 8.70254 21.7179 8.5209C21.5368 8.34011 21.4464 8.12452 21.4464 7.87208C21.4464 7.62049 21.5368 7.40448 21.7179 7.22326C21.8988 7.04247 22.1151 6.95208 22.3673 6.95208C22.6189 6.95208 22.8309 7.04247 23.0043 7.22326C23.1774 7.40491 23.2638 7.62049 23.2638 7.87208C23.2638 8.12409 23.1774 8.34011 23.0043 8.5209Z" fill="#3DDB85"/>
<path d="M6.55566 29.3003C6.55566 30.0247 6.80725 30.6379 7.31049 31.1412C7.81416 31.6444 8.4274 31.896 9.15134 31.896H10.8979L10.9218 37.254C10.9218 37.9305 11.1578 38.5051 11.6297 38.9771C12.1016 39.4491 12.6684 39.685 13.3289 39.685C14.0051 39.685 14.5796 39.4491 15.0516 38.9771C15.5236 38.5051 15.7595 37.9306 15.7595 37.254V31.8965H19.0163V37.254C19.0163 37.9305 19.2522 38.5051 19.7242 38.9771C20.1962 39.4491 20.7702 39.685 21.4469 39.685C22.1231 39.685 22.6976 39.4491 23.1696 38.9771C23.6416 38.5051 23.8775 37.9306 23.8775 37.254V31.8965H25.6476C26.3555 31.8965 26.9608 31.6449 27.465 31.1416C27.9682 30.6384 28.2199 30.0251 28.2199 29.3008V13.582H6.55566V29.3003Z" fill="#3DDB85"/>
<path d="M31.5683 13.1328C30.9072 13.1328 30.341 13.3653 29.869 13.829C29.3971 14.2935 29.1611 14.8642 29.1611 15.5399V25.6881C29.1611 26.3656 29.397 26.9392 29.869 27.4112C30.341 27.8832 30.9077 28.1192 31.5683 28.1192C32.2445 28.1192 32.8189 27.8832 33.2909 27.4112C33.7629 26.9392 33.9988 26.3656 33.9988 25.6881V15.5399C33.9988 14.8641 33.7629 14.2935 33.2909 13.829C32.8189 13.3653 32.2445 13.1328 31.5683 13.1328Z" fill="#3DDB85"/>
</svg>
