<svg width="33" height="40" viewBox="0 0 33 40" fill="none" xmlns="http://www.w3.org/2000/svg">
<path d="M10.9409 40C4.95305 39.9655 0 27.7279 0 21.4956C0 11.3152 7.62814 9.08638 10.568 9.08638C11.8928 9.08638 13.3075 9.60727 14.5553 10.0682C15.4278 10.3897 16.3302 10.7217 16.8321 10.7217C17.1325 10.7217 17.8405 10.4393 18.4655 10.1916C19.7984 9.66029 21.4571 9 23.3886 9C23.392 9 23.3967 9 23.4001 9C24.8423 9 29.2153 9.31689 31.8443 13.2697L32.4602 14.1962L31.5739 14.8658C30.3077 15.8223 27.9975 17.567 27.9975 21.0232C27.9975 25.1166 30.6138 26.6908 31.8708 27.4479C32.4257 27.7821 33 28.1267 33 28.8804C33 29.3725 29.0771 39.939 23.3805 39.939C21.9866 39.939 21.0012 39.5195 20.1322 39.1496C19.2528 38.775 18.4942 38.4524 17.2407 38.4524C16.6053 38.4524 15.8018 38.7531 14.9512 39.0724C13.7887 39.5067 12.473 40 10.98 40H10.9409Z" fill="#000000"/>
<path d="M23.9961 0C24.1335 5.44735 20.5924 9.22646 17.0555 8.98945C16.4727 4.64228 20.592 0 23.9961 0Z" fill="#000000"/>
</svg>
