<svg width="640" height="512" xmlns="http://www.w3.org/2000/svg">
 <!-- Font Awesome Free 5.15.4 by @fontawesome - https://fontawesome.com License - https://fontawesome.com/license/free (Icons: CC BY 4.0, Fonts: SIL OFL 1.1, Code: MIT License) -->

 <g>
  <title>background</title>
  <rect fill="#ab274b" id="canvas_background" height="514" width="642" y="-1" x="-1"/>
 </g>
 <g>
  <title>Layer 1</title>
  <path fill="#000000" id="svg_1" d="m480.07,96l-320.07,0a160,160 0 1 0 114.24,272l91.52,0a160,160 0 1 0 114.31,-272zm-232.07,172a12,12 0 0 1 -12,12l-52,0l0,52a12,12 0 0 1 -12,12l-24,0a12,12 0 0 1 -12,-12l0,-52l-52,0a12,12 0 0 1 -12,-12l0,-24a12,12 0 0 1 12,-12l52,0l0,-52a12,12 0 0 1 12,-12l24,0a12,12 0 0 1 12,12l0,52l52,0a12,12 0 0 1 12,12l0,24zm216,52a40,40 0 1 1 40,-40a40,40 0 0 1 -40,40zm64,-96a40,40 0 1 1 40,-40a40,40 0 0 1 -40,40z"/>
 </g>
</svg>
